<mxfile host="app.diagrams.net" agent="Mozilla/5.0 (Windows NT 10.0; Win64; x64) AppleWebKit/537.36 (KHTML, like Gecko) Chrome/127.0.0.0 Safari/537.36" version="24.7.6">
  <diagram name="第 1 页" id="tZWTM6MMYOXU5_3-boHc">
    <mxGraphModel dx="3515" dy="1050" grid="0" gridSize="10" guides="1" tooltips="1" connect="1" arrows="1" fold="1" page="0" pageScale="1" pageWidth="827" pageHeight="1169" math="0" shadow="0">
      <root>
        <mxCell id="0" />
        <mxCell id="1" parent="0" />
        <mxCell id="e2eBXviYndKqO75Ok7_J-49" value="" style="rounded=0;whiteSpace=wrap;html=1;fillColor=#f5f5f5;strokeColor=#666666;gradientColor=#b3b3b3;" parent="1" vertex="1">
          <mxGeometry x="-260" y="50" width="530" height="480" as="geometry" />
        </mxCell>
        <mxCell id="e2eBXviYndKqO75Ok7_J-50" value="&lt;font size=&quot;1&quot; style=&quot;&quot;&gt;&lt;b style=&quot;font-size: 19px;&quot;&gt;A客户私有云&lt;/b&gt;&lt;/font&gt;" style="text;html=1;align=center;verticalAlign=middle;resizable=0;points=[];autosize=1;strokeColor=none;fillColor=none;" parent="1" vertex="1">
          <mxGeometry x="-260" y="57" width="130" height="40" as="geometry" />
        </mxCell>
        <mxCell id="e2eBXviYndKqO75Ok7_J-45" value="" style="rounded=0;whiteSpace=wrap;html=1;fillColor=#f5f5f5;strokeColor=#666666;gradientColor=#b3b3b3;" parent="1" vertex="1">
          <mxGeometry x="450" y="30" width="750" height="670" as="geometry" />
        </mxCell>
        <mxCell id="e2eBXviYndKqO75Ok7_J-35" value="" style="rounded=0;whiteSpace=wrap;html=1;fillColor=#d5e8d4;strokeColor=#82b366;gradientColor=#97d077;" parent="1" vertex="1">
          <mxGeometry x="-210" y="103" width="331" height="390" as="geometry" />
        </mxCell>
        <mxCell id="e2eBXviYndKqO75Ok7_J-10" value="&lt;b&gt;服务器&lt;/b&gt;" style="fontColor=#0066CC;verticalAlign=top;verticalLabelPosition=bottom;labelPosition=center;align=center;html=1;outlineConnect=0;fillColor=#CCCCCC;strokeColor=#6881B3;gradientColor=none;gradientDirection=north;strokeWidth=2;shape=mxgraph.networks.server;" parent="1" vertex="1">
          <mxGeometry x="17" y="130" width="50" height="80" as="geometry" />
        </mxCell>
        <mxCell id="e2eBXviYndKqO75Ok7_J-12" value="&lt;b&gt;交换机&lt;/b&gt;" style="fontColor=#0066CC;verticalAlign=top;verticalLabelPosition=bottom;labelPosition=center;align=center;html=1;outlineConnect=0;fillColor=#CCCCCC;strokeColor=#6881B3;gradientColor=none;gradientDirection=north;strokeWidth=2;shape=mxgraph.networks.switch;" parent="1" vertex="1">
          <mxGeometry x="-8" y="332" width="100" height="30" as="geometry" />
        </mxCell>
        <mxCell id="e2eBXviYndKqO75Ok7_J-13" value="&lt;b&gt;机柜&lt;/b&gt;" style="fontColor=#0066CC;verticalAlign=top;verticalLabelPosition=bottom;labelPosition=center;align=center;html=1;outlineConnect=0;fillColor=#CCCCCC;strokeColor=#6881B3;gradientColor=none;gradientDirection=north;strokeWidth=2;shape=mxgraph.networks.rack;" parent="1" vertex="1">
          <mxGeometry x="-123" y="121" width="50" height="100" as="geometry" />
        </mxCell>
        <mxCell id="e2eBXviYndKqO75Ok7_J-14" value="&lt;b&gt;防火墙&lt;/b&gt;" style="fontColor=#0066CC;verticalAlign=top;verticalLabelPosition=bottom;labelPosition=center;align=center;html=1;outlineConnect=0;fillColor=#CCCCCC;strokeColor=#6881B3;gradientColor=none;gradientDirection=north;strokeWidth=2;shape=mxgraph.networks.firewall;" parent="1" vertex="1">
          <mxGeometry x="-150" y="273" width="100" height="100" as="geometry" />
        </mxCell>
        <mxCell id="e2eBXviYndKqO75Ok7_J-36" value="" style="rounded=0;whiteSpace=wrap;html=1;fillColor=#dae8fc;strokeColor=#6c8ebf;gradientColor=#7ea6e0;" parent="1" vertex="1">
          <mxGeometry x="595" y="83" width="585" height="547" as="geometry" />
        </mxCell>
        <mxCell id="e2eBXviYndKqO75Ok7_J-37" value="" style="rounded=0;whiteSpace=wrap;html=1;fillColor=#fff2cc;gradientColor=#ffd966;strokeColor=#d6b656;" parent="1" vertex="1">
          <mxGeometry x="615" y="136" width="545" height="130" as="geometry" />
        </mxCell>
        <mxCell id="e2eBXviYndKqO75Ok7_J-38" value="&lt;b&gt;&lt;font style=&quot;font-size: 14px;&quot;&gt;服务器&lt;/font&gt;&lt;/b&gt;" style="rounded=0;whiteSpace=wrap;html=1;fillColor=#fa6800;strokeColor=#C73500;fontColor=#000000;" parent="1" vertex="1">
          <mxGeometry x="628" y="180" width="120" height="60" as="geometry" />
        </mxCell>
        <mxCell id="e2eBXviYndKqO75Ok7_J-39" value="&lt;b&gt;&lt;font style=&quot;font-size: 14px;&quot;&gt;交换机&lt;/font&gt;&lt;/b&gt;" style="rounded=0;whiteSpace=wrap;html=1;fillColor=#fa6800;fontColor=#000000;strokeColor=#C73500;" parent="1" vertex="1">
          <mxGeometry x="761" y="180" width="120" height="60" as="geometry" />
        </mxCell>
        <mxCell id="e2eBXviYndKqO75Ok7_J-40" value="&lt;b&gt;&lt;font style=&quot;font-size: 14px;&quot;&gt;机柜&lt;/font&gt;&lt;/b&gt;" style="rounded=0;whiteSpace=wrap;html=1;fillColor=#fa6800;fontColor=#000000;strokeColor=#C73500;" parent="1" vertex="1">
          <mxGeometry x="894" y="180" width="120" height="60" as="geometry" />
        </mxCell>
        <mxCell id="e2eBXviYndKqO75Ok7_J-41" value="&lt;b&gt;&lt;font style=&quot;font-size: 14px;&quot;&gt;耗材&lt;/font&gt;&lt;/b&gt;" style="rounded=0;whiteSpace=wrap;html=1;fillColor=#fa6800;fontColor=#000000;strokeColor=#C73500;" parent="1" vertex="1">
          <mxGeometry x="1027" y="180" width="120" height="60" as="geometry" />
        </mxCell>
        <mxCell id="e2eBXviYndKqO75Ok7_J-42" value="&lt;b&gt;&lt;font style=&quot;font-size: 14px;&quot;&gt;CMDB&lt;/font&gt;&lt;/b&gt;" style="text;html=1;align=center;verticalAlign=middle;resizable=0;points=[];autosize=1;strokeColor=none;fillColor=none;" parent="1" vertex="1">
          <mxGeometry x="616" y="140" width="70" height="30" as="geometry" />
        </mxCell>
        <mxCell id="e2eBXviYndKqO75Ok7_J-43" value="&lt;font size=&quot;1&quot; style=&quot;&quot;&gt;&lt;b style=&quot;font-size: 16px;&quot;&gt;技术中台&lt;/b&gt;&lt;/font&gt;" style="text;html=1;align=center;verticalAlign=middle;resizable=0;points=[];autosize=1;strokeColor=none;fillColor=none;" parent="1" vertex="1">
          <mxGeometry x="635" y="93" width="90" height="30" as="geometry" />
        </mxCell>
        <mxCell id="e2eBXviYndKqO75Ok7_J-46" value="&lt;font size=&quot;1&quot; style=&quot;&quot;&gt;&lt;b style=&quot;font-size: 19px;&quot;&gt;公有云&lt;/b&gt;&lt;/font&gt;" style="text;html=1;align=center;verticalAlign=middle;resizable=0;points=[];autosize=1;strokeColor=none;fillColor=none;" parent="1" vertex="1">
          <mxGeometry x="460" y="40" width="80" height="40" as="geometry" />
        </mxCell>
        <mxCell id="e2eBXviYndKqO75Ok7_J-54" value="&lt;b&gt;跳板机&lt;/b&gt;" style="fontColor=#0066CC;verticalAlign=top;verticalLabelPosition=bottom;labelPosition=center;align=center;html=1;outlineConnect=0;fillColor=#CCCCCC;strokeColor=#6881B3;gradientColor=none;gradientDirection=north;strokeWidth=2;shape=mxgraph.networks.proxy_server;" parent="1" vertex="1">
          <mxGeometry x="490" y="332" width="70" height="127.5" as="geometry" />
        </mxCell>
        <mxCell id="e2eBXviYndKqO75Ok7_J-55" value="" style="rounded=0;whiteSpace=wrap;html=1;fillColor=#fff2cc;gradientColor=#ffd966;strokeColor=#d6b656;" parent="1" vertex="1">
          <mxGeometry x="615" y="303" width="555" height="187" as="geometry" />
        </mxCell>
        <mxCell id="e2eBXviYndKqO75Ok7_J-56" value="&lt;b&gt;&lt;font style=&quot;font-size: 14px;&quot; color=&quot;#000000&quot;&gt;计算集群管理&lt;/font&gt;&lt;/b&gt;" style="rounded=0;whiteSpace=wrap;html=1;fillColor=#a0522d;fontColor=#ffffff;strokeColor=#6D1F00;" parent="1" vertex="1">
          <mxGeometry x="625" y="347" width="90" height="60" as="geometry" />
        </mxCell>
        <mxCell id="e2eBXviYndKqO75Ok7_J-57" value="&lt;b&gt;&lt;font style=&quot;font-size: 14px;&quot; color=&quot;#000000&quot;&gt;网络集群管理&lt;/font&gt;&lt;/b&gt;" style="rounded=0;whiteSpace=wrap;html=1;fillColor=#a0522d;fontColor=#ffffff;strokeColor=#6D1F00;" parent="1" vertex="1">
          <mxGeometry x="725" y="347" width="90" height="60" as="geometry" />
        </mxCell>
        <mxCell id="e2eBXviYndKqO75Ok7_J-58" value="&lt;b&gt;&lt;font style=&quot;font-size: 14px;&quot; color=&quot;#000000&quot;&gt;RDS集群管理&lt;/font&gt;&lt;/b&gt;" style="rounded=0;whiteSpace=wrap;html=1;fillColor=#a0522d;fontColor=#ffffff;strokeColor=#6D1F00;" parent="1" vertex="1">
          <mxGeometry x="825" y="347" width="90" height="60" as="geometry" />
        </mxCell>
        <mxCell id="e2eBXviYndKqO75Ok7_J-59" value="&lt;b&gt;&lt;font color=&quot;#000000&quot; style=&quot;font-size: 14px;&quot;&gt;对象存储集群管理&lt;/font&gt;&lt;/b&gt;" style="rounded=0;whiteSpace=wrap;html=1;fillColor=#a0522d;fontColor=#ffffff;strokeColor=#6D1F00;" parent="1" vertex="1">
          <mxGeometry x="926" y="347" width="116" height="60" as="geometry" />
        </mxCell>
        <mxCell id="e2eBXviYndKqO75Ok7_J-60" value="&lt;b&gt;&lt;font style=&quot;font-size: 14px;&quot;&gt;运维中心&lt;/font&gt;&lt;/b&gt;" style="text;html=1;align=center;verticalAlign=middle;resizable=0;points=[];autosize=1;strokeColor=none;fillColor=none;" parent="1" vertex="1">
          <mxGeometry x="615" y="307" width="80" height="30" as="geometry" />
        </mxCell>
        <mxCell id="e2eBXviYndKqO75Ok7_J-61" value="&lt;b&gt;&lt;font color=&quot;#000000&quot; style=&quot;font-size: 14px;&quot;&gt;块存储集群管理&lt;/font&gt;&lt;/b&gt;" style="rounded=0;whiteSpace=wrap;html=1;fillColor=#a0522d;fontColor=#ffffff;strokeColor=#6D1F00;" parent="1" vertex="1">
          <mxGeometry x="1052" y="347" width="107" height="60" as="geometry" />
        </mxCell>
        <mxCell id="e2eBXviYndKqO75Ok7_J-62" value="&lt;b&gt;&lt;font color=&quot;#000000&quot; style=&quot;font-size: 14px;&quot;&gt;主机管理&lt;/font&gt;&lt;/b&gt;" style="rounded=0;whiteSpace=wrap;html=1;fillColor=#a0522d;fontColor=#ffffff;strokeColor=#6D1F00;" parent="1" vertex="1">
          <mxGeometry x="775" y="418" width="90" height="60" as="geometry" />
        </mxCell>
        <mxCell id="e2eBXviYndKqO75Ok7_J-63" value="&lt;b&gt;&lt;font color=&quot;#000000&quot; style=&quot;font-size: 14px;&quot;&gt;任务管理&lt;/font&gt;&lt;/b&gt;" style="rounded=0;whiteSpace=wrap;html=1;fillColor=#a0522d;fontColor=#ffffff;strokeColor=#6D1F00;" parent="1" vertex="1">
          <mxGeometry x="917" y="418" width="90" height="60" as="geometry" />
        </mxCell>
        <mxCell id="e2eBXviYndKqO75Ok7_J-66" value="" style="shape=flexArrow;endArrow=classic;html=1;rounded=0;entryX=0;entryY=0.5;entryDx=0;entryDy=0;fillColor=#EA6B66;gradientColor=none;strokeColor=#EA6B66;strokeWidth=5;" parent="1" target="e2eBXviYndKqO75Ok7_J-37" edge="1">
          <mxGeometry width="50" height="50" relative="1" as="geometry">
            <mxPoint x="120" y="200" as="sourcePoint" />
            <mxPoint x="592" y="201" as="targetPoint" />
          </mxGeometry>
        </mxCell>
        <mxCell id="e2eBXviYndKqO75Ok7_J-70" value="&lt;b style=&quot;&quot;&gt;&lt;font style=&quot;font-size: 14px;&quot;&gt;资产信息录入&lt;/font&gt;&lt;/b&gt;" style="text;html=1;align=center;verticalAlign=middle;resizable=0;points=[];autosize=1;strokeColor=none;fillColor=none;" parent="1" vertex="1">
          <mxGeometry x="306" y="214" width="110" height="30" as="geometry" />
        </mxCell>
        <mxCell id="1RbIOlNiM8ZohARNa_zV-5" style="edgeStyle=orthogonalEdgeStyle;rounded=0;orthogonalLoop=1;jettySize=auto;html=1;exitX=0;exitY=0.5;exitDx=0;exitDy=0;exitPerimeter=0;entryX=1;entryY=0.75;entryDx=0;entryDy=0;" edge="1" parent="1" source="e2eBXviYndKqO75Ok7_J-73" target="e2eBXviYndKqO75Ok7_J-35">
          <mxGeometry relative="1" as="geometry" />
        </mxCell>
        <mxCell id="e2eBXviYndKqO75Ok7_J-73" value="&lt;b&gt;frp&lt;/b&gt;" style="fontColor=#0066CC;verticalAlign=top;verticalLabelPosition=bottom;labelPosition=center;align=center;html=1;outlineConnect=0;fillColor=#CCCCCC;strokeColor=#6881B3;gradientColor=none;gradientDirection=north;strokeWidth=2;shape=mxgraph.networks.proxy_server;" parent="1" vertex="1">
          <mxGeometry x="170" y="332" width="70" height="127.5" as="geometry" />
        </mxCell>
        <mxCell id="e2eBXviYndKqO75Ok7_J-74" style="edgeStyle=orthogonalEdgeStyle;rounded=0;orthogonalLoop=1;jettySize=auto;html=1;entryX=0.88;entryY=0.5;entryDx=0;entryDy=0;entryPerimeter=0;" parent="1" source="e2eBXviYndKqO75Ok7_J-54" target="e2eBXviYndKqO75Ok7_J-73" edge="1">
          <mxGeometry relative="1" as="geometry" />
        </mxCell>
        <mxCell id="e2eBXviYndKqO75Ok7_J-78" style="edgeStyle=orthogonalEdgeStyle;rounded=0;orthogonalLoop=1;jettySize=auto;html=1;entryX=0.88;entryY=0.5;entryDx=0;entryDy=0;entryPerimeter=0;" parent="1" source="e2eBXviYndKqO75Ok7_J-55" target="e2eBXviYndKqO75Ok7_J-54" edge="1">
          <mxGeometry relative="1" as="geometry" />
        </mxCell>
        <mxCell id="e2eBXviYndKqO75Ok7_J-80" value="" style="rounded=0;whiteSpace=wrap;html=1;fillColor=#f5f5f5;strokeColor=#666666;gradientColor=#b3b3b3;" parent="1" vertex="1">
          <mxGeometry x="-260" y="585" width="530" height="470" as="geometry" />
        </mxCell>
        <mxCell id="e2eBXviYndKqO75Ok7_J-81" value="&lt;font size=&quot;1&quot; style=&quot;&quot;&gt;&lt;b style=&quot;font-size: 19px;&quot;&gt;B客户私有云&lt;/b&gt;&lt;/font&gt;" style="text;html=1;align=center;verticalAlign=middle;resizable=0;points=[];autosize=1;strokeColor=none;fillColor=none;" parent="1" vertex="1">
          <mxGeometry x="-260" y="593" width="130" height="40" as="geometry" />
        </mxCell>
        <mxCell id="e2eBXviYndKqO75Ok7_J-82" value="" style="rounded=0;whiteSpace=wrap;html=1;fillColor=#f8cecc;strokeColor=#b85450;gradientColor=#ea6b66;" parent="1" vertex="1">
          <mxGeometry x="-210" y="638" width="331" height="390" as="geometry" />
        </mxCell>
        <mxCell id="e2eBXviYndKqO75Ok7_J-83" value="&lt;b&gt;服务器&lt;/b&gt;" style="fontColor=#0066CC;verticalAlign=top;verticalLabelPosition=bottom;labelPosition=center;align=center;html=1;outlineConnect=0;fillColor=#CCCCCC;strokeColor=#6881B3;gradientColor=none;gradientDirection=north;strokeWidth=2;shape=mxgraph.networks.server;" parent="1" vertex="1">
          <mxGeometry x="17" y="665" width="50" height="80" as="geometry" />
        </mxCell>
        <mxCell id="e2eBXviYndKqO75Ok7_J-84" value="&lt;b&gt;交换机&lt;/b&gt;" style="fontColor=#0066CC;verticalAlign=top;verticalLabelPosition=bottom;labelPosition=center;align=center;html=1;outlineConnect=0;fillColor=#CCCCCC;strokeColor=#6881B3;gradientColor=none;gradientDirection=north;strokeWidth=2;shape=mxgraph.networks.switch;" parent="1" vertex="1">
          <mxGeometry x="-8" y="867" width="100" height="30" as="geometry" />
        </mxCell>
        <mxCell id="e2eBXviYndKqO75Ok7_J-85" value="&lt;b&gt;机柜&lt;/b&gt;" style="fontColor=#0066CC;verticalAlign=top;verticalLabelPosition=bottom;labelPosition=center;align=center;html=1;outlineConnect=0;fillColor=#CCCCCC;strokeColor=#6881B3;gradientColor=none;gradientDirection=north;strokeWidth=2;shape=mxgraph.networks.rack;" parent="1" vertex="1">
          <mxGeometry x="-123" y="656" width="50" height="100" as="geometry" />
        </mxCell>
        <mxCell id="e2eBXviYndKqO75Ok7_J-86" value="&lt;b&gt;防火墙&lt;/b&gt;" style="fontColor=#0066CC;verticalAlign=top;verticalLabelPosition=bottom;labelPosition=center;align=center;html=1;outlineConnect=0;fillColor=#CCCCCC;strokeColor=#6881B3;gradientColor=none;gradientDirection=north;strokeWidth=2;shape=mxgraph.networks.firewall;" parent="1" vertex="1">
          <mxGeometry x="-150" y="808" width="100" height="100" as="geometry" />
        </mxCell>
        <mxCell id="e2eBXviYndKqO75Ok7_J-88" value="&lt;b&gt;frp&lt;/b&gt;" style="fontColor=#0066CC;verticalAlign=top;verticalLabelPosition=bottom;labelPosition=center;align=center;html=1;outlineConnect=0;fillColor=#CCCCCC;strokeColor=#6881B3;gradientColor=none;gradientDirection=north;strokeWidth=2;shape=mxgraph.networks.proxy_server;" parent="1" vertex="1">
          <mxGeometry x="170" y="838" width="70" height="127.5" as="geometry" />
        </mxCell>
        <mxCell id="e2eBXviYndKqO75Ok7_J-89" style="edgeStyle=orthogonalEdgeStyle;rounded=0;orthogonalLoop=1;jettySize=auto;html=1;entryX=1;entryY=0.677;entryDx=0;entryDy=0;entryPerimeter=0;" parent="1" source="e2eBXviYndKqO75Ok7_J-88" target="e2eBXviYndKqO75Ok7_J-82" edge="1">
          <mxGeometry relative="1" as="geometry" />
        </mxCell>
        <mxCell id="e2eBXviYndKqO75Ok7_J-90" value="" style="shape=flexArrow;endArrow=classic;html=1;rounded=0;entryX=0;entryY=0.25;entryDx=0;entryDy=0;exitX=1.012;exitY=0.179;exitDx=0;exitDy=0;exitPerimeter=0;strokeWidth=5;fillColor=#EA6B66;strokeColor=#EA6B66;" parent="1" source="e2eBXviYndKqO75Ok7_J-82" target="e2eBXviYndKqO75Ok7_J-36" edge="1">
          <mxGeometry width="50" height="50" relative="1" as="geometry">
            <mxPoint x="220" y="610" as="sourcePoint" />
            <mxPoint x="270" y="560" as="targetPoint" />
          </mxGeometry>
        </mxCell>
        <mxCell id="e2eBXviYndKqO75Ok7_J-91" value="&lt;b style=&quot;&quot;&gt;&lt;font style=&quot;font-size: 14px;&quot;&gt;资产信息录入&lt;/font&gt;&lt;/b&gt;" style="text;html=1;align=center;verticalAlign=middle;resizable=0;points=[];autosize=1;strokeColor=none;fillColor=none;rotation=-46;" parent="1" vertex="1">
          <mxGeometry x="340" y="450.5" width="110" height="30" as="geometry" />
        </mxCell>
        <mxCell id="e2eBXviYndKqO75Ok7_J-92" style="edgeStyle=orthogonalEdgeStyle;rounded=0;orthogonalLoop=1;jettySize=auto;html=1;entryX=0.88;entryY=0.5;entryDx=0;entryDy=0;entryPerimeter=0;" parent="1" source="e2eBXviYndKqO75Ok7_J-54" target="e2eBXviYndKqO75Ok7_J-88" edge="1">
          <mxGeometry relative="1" as="geometry">
            <Array as="points">
              <mxPoint x="520" y="902" />
            </Array>
          </mxGeometry>
        </mxCell>
        <mxCell id="1RbIOlNiM8ZohARNa_zV-1" value="&lt;b&gt;&lt;font color=&quot;#0066cc&quot;&gt;安全设备&lt;/font&gt;&lt;/b&gt;" style="image;sketch=0;aspect=fixed;html=1;points=[];align=center;fontSize=12;image=img/lib/mscae/Security_Center.svg;" vertex="1" parent="1">
          <mxGeometry x="-50" y="410" width="36" height="50" as="geometry" />
        </mxCell>
        <mxCell id="1RbIOlNiM8ZohARNa_zV-3" value="&lt;b&gt;&lt;font color=&quot;#0066cc&quot;&gt;安全设备&lt;/font&gt;&lt;/b&gt;" style="image;sketch=0;aspect=fixed;html=1;points=[];align=center;fontSize=12;image=img/lib/mscae/Security_Center.svg;" vertex="1" parent="1">
          <mxGeometry x="-50" y="940" width="36" height="50" as="geometry" />
        </mxCell>
        <mxCell id="1RbIOlNiM8ZohARNa_zV-6" value="" style="rounded=0;whiteSpace=wrap;html=1;fillColor=#fff2cc;gradientColor=#ffd966;strokeColor=#d6b656;" vertex="1" parent="1">
          <mxGeometry x="616" y="528" width="554" height="90" as="geometry" />
        </mxCell>
        <mxCell id="1RbIOlNiM8ZohARNa_zV-7" value="..." style="rounded=0;whiteSpace=wrap;html=1;fillColor=#76608a;fontColor=#ffffff;strokeColor=#432D57;" vertex="1" parent="1">
          <mxGeometry x="710" y="547" width="90" height="60" as="geometry" />
        </mxCell>
        <mxCell id="1RbIOlNiM8ZohARNa_zV-8" value="..." style="rounded=0;whiteSpace=wrap;html=1;fillColor=#76608a;fontColor=#ffffff;strokeColor=#432D57;" vertex="1" parent="1">
          <mxGeometry x="865" y="547" width="90" height="60" as="geometry" />
        </mxCell>
        <mxCell id="1RbIOlNiM8ZohARNa_zV-9" value="..." style="rounded=0;whiteSpace=wrap;html=1;fillColor=#76608a;fontColor=#ffffff;strokeColor=#432D57;" vertex="1" parent="1">
          <mxGeometry x="1020" y="547" width="90" height="60" as="geometry" />
        </mxCell>
        <mxCell id="1RbIOlNiM8ZohARNa_zV-10" value="&lt;span style=&quot;font-size: 14px;&quot;&gt;&lt;b&gt;其它模块&lt;/b&gt;&lt;/span&gt;" style="text;html=1;align=center;verticalAlign=middle;resizable=0;points=[];autosize=1;strokeColor=none;fillColor=none;" vertex="1" parent="1">
          <mxGeometry x="615" y="529" width="80" height="30" as="geometry" />
        </mxCell>
      </root>
    </mxGraphModel>
  </diagram>
</mxfile>
